<svg alt="Salve" width="1em" viewBox="0 0 116 40" fill="#5D40A1" fill-rule="evenodd" data-darkreader-inline-fill="" style="--darkreader-inline-fill: #361988;"><g><path d="M47.066 31.267c.705 0 1.404-.082 2.098-.247.694-.166 1.317-.44 1.867-.826.551-.386.997-.882 1.338-1.487.342-.606.513-1.35.513-2.23 0-1.212-.435-2.176-1.306-2.892-.87-.716-2.219-1.261-4.047-1.636-1.278-.264-2.214-.59-2.81-.975-.594-.385-.891-.941-.891-1.668 0-.419.093-.782.28-1.09.188-.31.436-.562.744-.76.309-.199.661-.342 1.057-.43.397-.088.794-.132 1.19-.132.86 0 1.625.203 2.297.61.671.408 1.173.932 1.503 1.57l1.718-1.288c-.506-.881-1.266-1.564-2.28-2.049-1.013-.485-2.06-.727-3.139-.727-.705 0-1.388.088-2.049.264-.66.177-1.25.447-1.767.81-.518.363-.931.826-1.24 1.388-.308.562-.462 1.239-.462 2.032 0 .727.143 1.333.43 1.817.286.485.65.887 1.09 1.206.44.32.92.562 1.437.727.518.166 1.008.303 1.47.413 1.477.353 2.606.733 3.388 1.14.782.408 1.173 1.02 1.173 1.834 0 .507-.1.931-.298 1.273-.198.341-.462.622-.793.842-.33.22-.716.375-1.156.463-.44.088-.903.132-1.388.132-.925 0-1.773-.231-2.544-.694-.771-.463-1.355-1.035-1.752-1.718l-1.784 1.322c.705 1.035 1.608 1.795 2.71 2.28 1.101.484 2.235.726 3.403.726zm14.754 0c1.256 0 2.33-.225 3.222-.677.892-.452 1.69-1.195 2.395-2.23h.066c0 .418.022.848.066 1.288.045.44.1.848.166 1.223h2.015c-.088-.44-.154-.98-.198-1.62-.044-.638-.066-1.255-.066-1.85v-6.774c0-.947-.154-1.773-.463-2.478-.308-.705-.738-1.288-1.288-1.751-.551-.463-1.19-.81-1.917-1.041-.727-.231-1.509-.347-2.346-.347-1.322 0-2.506.21-3.552.628-1.046.418-1.89.947-2.528 1.586l1.256 1.487c.55-.55 1.222-.991 2.015-1.322.793-.33 1.653-.495 2.578-.495 1.344 0 2.368.33 3.073.99.705.662 1.057 1.664 1.057 3.008v.495c-1.41 0-2.77.05-4.08.15-1.311.098-2.473.319-3.487.66-1.013.341-1.823.86-2.428 1.553-.606.694-.91 1.636-.91 2.825 0 .86.172 1.586.513 2.181.342.595.771 1.08 1.289 1.454.517.375 1.09.644 1.718.81.628.165 1.24.247 1.834.247zm.595-1.85c-.44 0-.876-.05-1.306-.149-.43-.099-.82-.264-1.173-.495-.352-.232-.633-.535-.842-.909-.21-.374-.314-.837-.314-1.388 0-.727.242-1.31.727-1.751.485-.44 1.107-.777 1.867-1.008.76-.231 1.608-.385 2.544-.463.936-.077 1.867-.115 2.792-.115h.661v1.156c0 .683-.11 1.333-.33 1.95-.22.617-.54 1.162-.958 1.636-.419.473-.937.848-1.554 1.123-.616.275-1.321.413-2.114.413zm15.448 1.454V5.891h-2.247v24.98h2.247zm12.639 0l6.278-15.464h-2.412l-5.056 13.085h-.066l-5.023-13.085h-2.51l6.31 15.464h2.479zm16.934.396c1.278 0 2.473-.253 3.586-.76 1.112-.506 2.131-1.343 3.056-2.51l-1.685-1.323c-.44.705-1.085 1.328-1.933 1.867-.848.54-1.856.81-3.024.81-.793 0-1.53-.149-2.213-.446-.683-.298-1.278-.7-1.785-1.206-.506-.507-.903-1.102-1.19-1.785-.286-.682-.44-1.41-.462-2.18h12.82c.023-.199.034-.386.034-.562v-.496c0-1.057-.16-2.049-.48-2.974-.319-.925-.787-1.735-1.404-2.428-.616-.694-1.387-1.245-2.313-1.653-.925-.407-1.993-.61-3.205-.61-1.101 0-2.126.203-3.073.61-.947.408-1.773.975-2.478 1.702-.705.727-1.256 1.586-1.652 2.578-.397.99-.595 2.07-.595 3.238 0 1.167.204 2.247.611 3.238.408.991.964 1.85 1.669 2.577.705.727 1.547 1.295 2.528 1.702.98.408 2.043.611 3.188.611zm4.924-9.318h-10.54c.043-.66.208-1.294.495-1.9.286-.606.672-1.145 1.156-1.619.485-.474 1.047-.848 1.685-1.123.64-.276 1.333-.413 2.082-.413 1.608 0 2.847.479 3.718 1.437.87.958 1.338 2.164 1.404 3.618zM12.783 29.537s-3.645-2.284-3.645-4.57c0-1.008.814-1.823 1.822-1.823s1.823.815 1.823 1.823c0-1.008.814-1.823 1.822-1.823 1.006 0 1.823.815 1.823 1.823 0 2.286-3.645 4.57-3.645 4.57m0-11.88c-4.635 0-8.391 3.756-8.391 8.39 0 4.633 3.756 8.392 8.39 8.392 4.635 0 8.392-3.759 8.392-8.391 0-4.635-3.757-8.391-8.391-8.391" transform="translate(-308 -24) translate(308 24) translate(0 .87)"></path><path d="M12.81 38.823C5.748 38.823 0 33.091 0 26.048c0-3.426 1.337-6.638 3.766-9.049.362-.357.942-.356 1.3.006.358.36.354.94-.005 1.298-2.078 2.064-3.223 4.814-3.223 7.745 0 6.031 4.923 10.938 10.973 10.938 6.02 0 10.918-4.907 10.918-10.938 0-5.418-3.886-9.275-10.665-10.582-5.153-.994-7.766-3.642-7.766-7.87 0-4.14 3.37-7.51 7.513-7.512 2.006 0 3.895.784 5.313 2.203.358.36.358.94-.001 1.3-.358.358-.939.358-1.299-.002-1.072-1.072-2.496-1.664-4.013-1.664-3.13 0-5.676 2.548-5.676 5.676 0 2.083.652 4.98 6.278 6.064 7.61 1.469 12.153 6.1 12.153 12.387 0 7.043-5.721 12.775-12.755 12.775" transform="translate(-308 -24) translate(308 24) translate(0 .87)"></path><path d="M16.43 7.6c0 2.016-1.634 3.649-3.648 3.649-2.016 0-3.65-1.633-3.65-3.649s1.634-3.65 3.65-3.65c2.014 0 3.649 1.634 3.649 3.65" transform="translate(-308 -24) translate(308 24) translate(0 .87)"></path></g></svg>